# xmcd
#
# Track frame offsets: 
#        150
#        18646
#        33266
#        52008
#        72721
#        87495
#        106561
#        116862
#        138996
#        151050
#        168155
#        188525
#        207101
#        222716
#        247186
#        276290
#
# Disc length: 3843 seconds
#
# Revision: 0
# Processed by: cddbd v1.5.1PL0 Copyright (c) Steve Scherf et al.
# Submitted via: ExactAudioCopy v0.95a5
#
DISCID=eb0f0110
DTITLE=Houston Jones - Three Crow Town
DYEAR=2005
DGENRE=Country
TTITLE0=Bedlam Road
TTITLE1=There She Goes (I'm Almost Gone)
TTITLE2=All I Want Is You
TTITLE3=Behind These Walls
TTITLE4=Toccata in Swing (Hold the Aria)
TTITLE5=Things Unseen
TTITLE6=Daley's Reel
TTITLE7=Three Crow Town
TTITLE8=Gypsy Hornpipe and March
TTITLE9=I'm Not Getting Better at Goodbye
TTITLE10=Can't Keep a Good Man Down
TTITLE11=Jump Up, Little Children
TTITLE12=Jig Etude
TTITLE13=Keeper of the Flame
TTITLE14=Carried Away
TTITLE15=Vanna's Waltz
EXTD=Summerhill Records/ Fiddling Cricket Music 2005\nSR-003\n37101 05
EXTD=281
EXTT0=
EXTT1=
EXTT2=
EXTT3=
EXTT4=
EXTT5=
EXTT6=
EXTT7=
EXTT8=
EXTT9=
EXTT10=
EXTT11=
EXTT12=
EXTT13=
EXTT14=
EXTT15=
PLAYORDER=
